<svg width="78" height="71" viewBox="0 0 78 71" fill="none" xmlns="http://www.w3.org/2000/svg">
<rect x="7.77734" y="2" width="68.2222" height="67" rx="8" fill="white" stroke="#C4B4A7" stroke-width="4"/>
<rect x="2" y="2" width="68.2222" height="67" rx="8" fill="white" stroke="#C4B4A7" stroke-width="4"/>
<rect x="2" y="2" width="62.4445" height="67" rx="8" fill="white" stroke="#C4B4A7" stroke-width="4"/>
<path d="M21.5234 48.28L21.6968 47.3854C23.2857 47.3854 24.239 47.1014 24.5568 46.5334L28.1968 25.1056C28.0234 24.5376 27.1568 24.2536 25.5968 24.2536L25.7701 23.359H35.5634C38.8568 23.359 41.3268 23.9412 42.9734 25.1056C44.6201 26.2416 45.4434 27.5906 45.4434 29.1526C45.4434 31.4814 44.389 33.37 42.2801 34.8184C40.1712 36.2384 37.3401 36.9484 33.7868 36.9484H30.1901L28.5434 46.5334C28.7168 47.1014 29.5834 47.3854 31.1434 47.3854L30.9701 48.28H21.5234ZM32.2268 24.8074L30.4068 35.5H34.0034C38.7701 35.5 41.1534 33.2564 41.1534 28.7692C41.1534 26.128 39.2034 24.8074 35.3034 24.8074H32.2268Z" fill="#C4B4A7"/>
</svg>
